/* XPM */
static char *result[] = {
/* columns rows colors chars-per-pixel */
"50 49 92 1 ",
"  c #6E8343",
". c #728747",
"X c #73864A",
"o c #768A4D",
"O c #788C4F",
"+ c #778950",
"@ c #7B8D54",
"# c #7E9156",
"$ c #7F9258",
"% c #809757",
"& c #82955B",
"* c #85995E",
"= c #889D5F",
"- c #859561",
"; c #879B60",
": c #899E62",
"> c #8E9D6D",
", c #8CA365",
"< c #8FA668",
"1 c #90AC67",
"2 c #91A66B",
"3 c #91AA6B",
"4 c #95B16D",
"5 c #93A175",
"6 c #97AA71",
"7 c #99AA74",
"8 c #99A67D",
"9 c #9DAE78",
"0 c #97B271",
"q c #9AB474",
"w c #9DB877",
"e c #9EB579",
"r c #9FB87A",
"t c #A2B97D",
"y c #9FAC83",
"u c #A1AD86",
"i c #A1AD89",
"p c #A6B782",
"a c #A6BC82",
"s c #A9BB84",
"d c #A5B18B",
"f c #ACBD89",
"g c #A7B191",
"h c #ABB692",
"j c #AEB996",
"k c #B2BB9D",
"l c #B6BEA2",
"z c #ABC087",
"x c #AEC28B",
"c c #B1C48D",
"v c #AFC294",
"b c #B5C692",
"n c #B9CA96",
"m c #B4C29B",
"M c #BDCD9A",
"N c #B7C1A2",
"B c #BAC3A7",
"V c #BBCCA2",
"C c #BDC5AC",
"Z c #BECCAA",
"A c #C0CF9D",
"S c #C1D19F",
"D c #C0C8AE",
"F c #C2D2A0",
"G c #C1D1AA",
"H c #C3CBB2",
"J c #C8CFB7",
"K c #C5CBB8",
"L c #C9CEBC",
"P c #CBD3BC",
"I c #CDD9BB",
"U c #CED5C2",
"Y c #D1D6C5",
"T c #D3DAC6",
"R c #D4D7CC",
"E c #D5DACB",
"W c #DADED1",
"Q c #DCE2D3",
"! c #DFE2D9",
"~ c #E1E4DB",
"^ c #E3E9D9",
"/ c #E7EAE2",
"( c #EAEDE5",
") c #EDEDEC",
"_ c #EFF0EE",
"` c #F0F1EF",
"' c #F0EFF1",
"] c #F4F4F4",
"[ c #F8F8F7",
"{ c #F7F5F9",
"} c #F8F7F9",
"| c #FBFBFB",
/* pixels */
"(|)]})|)|_{[)|)|){{)|)|){])|)|)[]'|)|)[]_|)|)[]_|)",
"}'{]]}]['[]]['[_[]]{'[][]][_[_[]][][_]]]{][_]]]{_[",
"}]{]]}_}_[]]['|][]]]][_{]]|]|_{]]{]}_[]]{]|'[]][_[",
"(|'][)|)|_{[)|)|_][_|)|){]_|)|_{[_|)|'[])|)|)[]]|)",
"|)}]]|)|)[]_|)|)|]]|)|)|]]|)|)|]][)|)}]]}_|)|]]}'|",
"][]]]][]{]{]_[][]]{_[][]]{'['[]]]]{_[][]][]{]]]]['",
"_[]]]][_[]]{'|][']{][_|']]'[_|_{]]}_[_{]_[_|_{]]['",
"|)[]]|)|)[]_|)|)|]_|)|)[]]|)|)|_]}]|_|_]|)|)|_]})|",
")|_][_|)|_]})|)|_]{'|)|_{]_|)|_]|[!8J[{]`|)|_[]`|)",
"}]{]]}][]]]]{][][]]]][]{]]]]]]|[E8@X@Y|]{]{`{]]{][",
"}][]]}_}_[]][_}][]][_|_[]]]]|]Qv<$@@X#E|]`|_[]]{'[",
"(|_]})|)|_][)|)|){{)|)|_]|]|Ux44wr3<<<r/]|)|){]_|)",
"|'}]]|)|'[]_|)|)|]_|)|)[[_Ea44qqqqqqqr4a`]})|]]{)|",
"]]]]]]]]{]{]][]{]]]]]{|]Ia40wqqqq0qwqqq4z]]]]]]][]",
"'}][[_}][]]{_|'[]]]]|(Ir1000qqqqqq3;<qqw4b]}_{]][_",
"|)}]_|)|)[]_|)|)[{[_Zr10aaaar00qq<@@@;qqq1Z{|_]})|",
")}]]]]|)|_]{_|)|{/Zr44znSFSAnct0q<@@+$qq0w%N}}{_})",
"]]]]]]]{]]]]]{|/V040qcMMfpfnnAMsqq<*;3qqq<@XD|]{][",
"|][]]}'|_{]{|QV04qq0aMMs&>6MAnMMt0wqwqq0q*@@+L|]_|",
"(|`]})|(}{}^b04qqqq0cnS7;796fMnMc6qqqqqqq;@$Xi|_|(",
"|)}]]})|]Y8,4qqqqqq0xMnn76>2&fnnb00qqqqww3@$Xl|}'|",
"]{]]]]|Q5oX&qqqqq000aMnMAf97&fAAb0qqqqq3*@@$Xd|]{]",
")|]]])|k $@&qqqwqqwqqbMnnf229AnAa0qwq3*@;,+@Om|'|_",
"|)}]]|]Y+@@3q0q6;$,0qqxMAASSAnns0wq<&#;3:$&*+i|})|",
")|]]})|NX$2w0qw&+@+=wq0tfnnncztqq<&$;3;$*;$$#H|_|)",
"]]]]]]|DX@$0qqw,@++,w0w00qeqqq0<$$,2*$*:*$&:#d|]]]",
"|][]]}}CX$;&0q0w3<2q0qqqqq0wq,&%,<*$*,&$:<%$oh|{'|",
")|)]})|K+@*:&eqqqeeq0q0qqwq:%&,,*$*:&$,<*$&%Oh|_|(",
"|_}]][]CX$&;==tqqqqqq0wr7:@&>,&%;;$&,3*$*;$$#N|]'|",
"]]]]]]|CX$&&=*=3<<30qw3:@&2,&%;;$&<<*$*:&$%;Od|]]]",
")|]][)|CX@**&:&&,==,3*@&3<&&:;&&<<*$;;&$,,&&@m|]|)",
"|)}]`}]Yo@*,&*=%*,=&@*2,&&;;%&2,&$;:$&,<*&&$Xi|})|",
")}]][)|NX$*;:**&&@@&,,&&:*$&<<&$;;$&<<$$;*X>C]]]|)",
"][]]]]|Co@$;;:&$&&=&@&:*$*2<$$:;$*<<*$,*@<P]|{]]]]",
"|_}]][{D.$;&&;;$$%$$=*@:3,$&,*$%<,$&:%@5U'|'[]]{_|",
"(|]]})|)yX*:**:&$&%$$=3:$&:*$;<,$%,$@5E|]|(|)}])})",
"|'}]]|)|)5$;:**&&$$&<:@*:&$=<,$&,$@yU|[]{_|)}]]['|",
"{]]]]]]]](>&;:&$%**%@*:*$:2;$*,$#d!||]]]]]]][]]]][",
")|]]})|_}}~;&:;$$$@$**$:3;$*;#$h!{|)|']]]})|'|]_|)",
"|)}]]|)|)[|R&&=&$&&$$,<;$;:#*g({][)|)|_]})|)|_][)|",
")|]{{_|_}]]|P&&&%@$&,*$;=#-N~|]]]]|_|_[]]|)|_[]]}_",
"]]]]]][]]]]]|K#&&**&$==@*N_|[]]]]]{]{]]{]]][]]]]{]",
"|_[]]})|_}]]}}No&$@*&#;D)}})|'|]][)|)|_]|)|)|_][)|",
")|_][)|)|`]})|]jo*$o>C}{[])|)|)]])|)|)[]_|)|)[{_|)",
"|_[]]['}_}]]}_}]iX5U_|_{]][_|_|]][_|'[]]['|_|_][_|",
"{]]]][]]]]]][]][_U[|]]]{]]{][]{]][][]{]]]]{]{]]{][",
")|_{[)|)|]]}]|)|]}]_|)|_[]'|)|'{{_|)|_[]_|)|'[]_|)",
"|)}]]|)|)[]]})|)[]]|)|)|_][)|)[]]|)|)|']|)|)|_]|'|",
"][]]]]}][]]]][_}]]{][_[]]]][_|]]]][_|'{]][_[]{]][_"
};
