/* XPM */
static char *result[] = {
/* columns rows colors chars-per-pixel */
"50 49 131 2 ",
"   c #2A272F",
".  c #2E2B2E",
"X  c #322E2E",
"o  c #35302D",
"O  c #3A352D",
"+  c #3D392C",
"@  c #292630",
"#  c #2F2C34",
"$  c #353131",
"%  c #3A3630",
"&  c #3E3B39",
"*  c #423B2A",
"=  c #423F3E",
"-  c #71561F",
";  c #74661F",
":  c #77681E",
">  c #7C6D1D",
",  c #4F4727",
"<  c #494329",
"1  c #4D482B",
"2  c #594626",
"3  c #544B26",
"4  c #5B4826",
"5  c #5D5425",
"6  c #654E24",
"7  c #625525",
"8  c #695123",
"9  c #6A5E21",
"0  c #715620",
"q  c #735823",
"w  c #656121",
"e  c #6C6121",
"r  c #6C642B",
"t  c #716320",
"y  c #7C6D20",
"u  c #70642A",
"i  c #6B6734",
"p  c #464345",
"a  c #555152",
"s  c #8D6519",
"d  c #906C19",
"f  c #84731C",
"g  c #88771B",
"h  c #B17D11",
"j  c #846321",
"k  c #857E20",
"l  c #807928",
"z  c #8E8617",
"x  c #8C851E",
"c  c #9D8916",
"v  c #958218",
"b  c #9B9217",
"n  c #BD850F",
"m  c #AC8A13",
"M  c #B48010",
"N  c #BB8410",
"B  c #A79114",
"V  c #AC9512",
"C  c #AC961A",
"Z  c #B19B11",
"A  c #B29C1B",
"S  c #AEA413",
"D  c #B8A110",
"F  c #B3AB11",
"G  c #918128",
"H  c #A59E2C",
"J  c #BCB321",
"K  c #C1870E",
"L  c #C3890E",
"P  c #C4AA0D",
"I  c #CEB20B",
"U  c #C4BC0D",
"Y  c #CABE0B",
"T  c #D2B50A",
"R  c #D4B809",
"E  c #C3AB1A",
"W  c #D0B514",
"Q  c #D6BB15",
"!  c #E5A506",
"~  c #EFAE03",
"^  c #F2A503",
"/  c #FCAC01",
"(  c #E7B306",
")  c #ECB905",
"_  c #F5B403",
"`  c #FCB301",
"'  c #FCB801",
"]  c #D5CA0A",
"[  c #DACF0A",
"{  c #DFD408",
"}  c #E0C106",
"|  c #EDCC03",
" . c #FDCC00",
".. c #E4D707",
"X. c #EDDE04",
"o. c #F4D202",
"O. c #FAD601",
"+. c #F6DB02",
"@. c #FDDA01",
"#. c #F6D60E",
"$. c #F9D709",
"%. c #FBDB0B",
"&. c #F7D717",
"*. c #F8D810",
"=. c #F4E603",
"-. c #FCE401",
";. c #FEED00",
":. c #FEED09",
">. c #FFF400",
",. c #FEF115",
"<. c #FFF51B",
"1. c #FDDF2B",
"2. c #FDE028",
"3. c #FEF32F",
"4. c #FEF533",
"5. c #F2DD57",
"6. c #FEE75C",
"7. c #FDE96A",
"8. c #F7F06E",
"9. c #FEF774",
"0. c #F4EF8F",
"q. c #FDEE8D",
"w. c #FDF182",
"e. c #FEFAA2",
"r. c #FEF5A9",
"t. c #FEF6C4",
"y. c #FEFBDB",
"u. c #FFFDE3",
"i. c #FEFDED",
"p. c #FEFFFF",
"a. c None",
/* pixels */
"a.a.a.a.a.a.a.a.a.a.a.a.a.a.a.a.a.a.a.a.a.a.a.a.a.a.a.a.a.a.a.a.a.a.a.a.a.a.a.a.a.a.a.a.a.a.a.a.a.a.",
"a.a.a.a.a.a.a.a.a.a.a.a.a.a.a.a.a.a.a.a.a.a.a.a.a.a.a.a.a.a.a.a.a.a.a.a.a.a.a.a.a.a.a.a.a.a.a.a.a.a.",
"a.a.a.a.a.a.a.a.a.a.a.a.a.a.a.a.a.a.a.a.a.a.a.a.a.a.a.a.a.a.a.a.a.a.a.a.a.a.a.a.a.a.a.a.a.a.a.a.a.a.",
"a.a.a.a.a.a.a.a.a.a.a.a.a.a.a.a.a.a.a.a.a.a.a.a.a.a.a.a.a.a.a.a.a.a.a.a.a.a.a.a.a.a.a.a.a.a.a.a.a.a.",
"a.a.a.a.a.a.a.a.a.a.a.a.a.a.a.a.a.a.a.a.a.a.a.a.a.a.a.a.a.a.a.a.a.a.a.a.a.a.a.a.a.a.a.a.a.a.a.a.a.a.",
"a.a.a.a.a.a.a.a.a.a.a.a.a.a.a.a.a.a.a.a.a.a.a.a.a.a.a.a.a.a.a.a.a.a.a.a.a.a.a.a.a.a.a.a.a.a.a.a.a.a.",
"a.a.a.a.a.a.a.a.a.a.a.a.a.a.a.a.a.a.a.a.a.a.a.a.a.a.a.a.a.a.a.a.a.a.a.a.a.a.a.a.a.a.a.a.a.a.a.a.a.a.",
"a.a.a.a.a.a.a.a.a.a.a.a.a.a.a.a.a.a.a.a.a.a.a.a.a.a.a.a.a.a.a.a.a.a.a.a.a.a.a.a.a.a.a.a.a.a.a.a.a.a.",
"a.a.a.a.a.a.a.a.a.a.a.a.a.a.a.a.a.a.a.a.a.a.a.a.a.a.a.a.a.a.a.a.a.a.a.a.a.a.a.a.a.a.a.a.a.a.a.a.a.a.",
"a.a.a.a.a.a.a.a.a.a.a.a.a.a.a.a.a.a.a.a.a.a.a.a.a.a.a.a.a.a.a.a.a.a.a.a.a.a.a.a.a.a.a.a.a.a.a.a.a.a.",
"a.a.a.a.a.a.a.a.a.a.a.a.a.a.a.a.a.a.a.a.a.a.a.a.a.a.a.a.a.a.a.a.a.a.a.a.a.a.a.a.a.a.a.a.a.a.a.a.a.a.",
"a.a.a.a.a.a.a.a.a.a.a.a.a.a.a.a.a.a.a $ $ X o o X o X o X X $ a.a.a.a.a.a.a.a.a.a.a.a.a.a.a.a.a.a.a.",
"a.a.a.a.a.a.a.a.a.a.a.a.a.a.a.a.a.a.a X X X X X X X X X X X X a.a.a.a.a.a.a.a.a.a.a.a.a.a.a.a.a.a.a.",
"a.a.a.a.a.a.a.a.a.a.a.a.a.a.a.a.X . l S S S S S S S S S S S S i p a.a.a.a.a.a.a.a.a.a.a.a.a.a.a.a.a.",
"a.a.a.a.a.a.a.a.a.a.a.a.a.a.a.a.. # z >.>.>.>.>.>.>.>.>.>.>.;.w . . a.a.a.a.a.a.a.a.a.a.a.a.a.a.a.a.",
"a.a.a.a.a.a.a.a.a.a.a.a.a.a.a.a.5 5 H 4.3.:.;.X.] ] =.;.;.;.-.f 2 4 a.a.a.a.a.a.a.a.a.a.a.a.a.a.a.a.",
"a.a.a.a.a.a.a.a.a.a.a.a.a.= $ 1 { =.8.i.y.1.@.Z + < R @.@.@.@._ ^ N O $ a.a.a.a.a.a.a.a.a.a.a.a.a.a.",
"a.a.a.a.a.a.a.a.a.a.a.a.a.& X < { >.9.p.i.1.@.V X + T @.@.@.@.' / L o o a.a.a.a.a.a.a.a.a.a.a.a.a.a.",
"a.a.a.a.a.a.a.a.a.a.a.X X k F J 0.e.w.6.5.k > 5 X o 9 : B @.@. . .( h h 8 X a.a.a.a.a.a.a.a.a.a.a.a.",
"a.a.a.a.a.a.a.a.a.a.a.X X b >.<.u.p.q.@.| , . X X X .   ; @.@.@.@. ./ / 0 X $ a.a.a.a.a.a.a.a.a.a.a.",
"a.a.a.a.a.a.a.a.a.a.a.X . b >.,.r.t.7.@.| 3 X * 5 7 7 7 v @.@.@.@. .` / - . $ a.a.a.a.a.a.a.a.a.a.a.",
"a.a.a.a.a.a.a.a.a.a.a.X X b >.;.%.%.@.@.| 3 # > o.o.o.o.o.@.@.@.@. ./ / - . X a.a.a.a.a.a.a.a.a.a.a.",
"a.a.a.a.a.a.a.a.a.a.a.X . b >.;.@.@.@.@.| 3 X f @.@.@.@.@.@.@.@.@. ./ ^ - X X a.a.a.a.a.a.a.a.a.a.a.",
"a.a.a.a.a.a.a.a.a.a.a.X X b >.;.-.@.@.@.O.P D c : > } %.&.@.@.@.@. ./ / - . o a.a.a.a.a.a.a.a.a.a.a.",
"a.a.a.a.a.a.a.a.a.a.a.X X b >.;.O.#.$.$.$.@.%.C # O W %.*.$.$.$.O. ./ ^ q . X a.a.a.a.a.a.a.a.a.a.a.",
"a.a.a.a.a.a.a.a.a.a.a.X . b >.;.*.#.$.*.*.#.%.E r r A E Q #.#.#.*. ./ / q . o a.a.a.a.a.a.a.a.a.a.a.",
"a.a.a.a.a.a.a.a.a.a.a.o X b >.;.@.O.@.@.O.@.@.O.o.| 7 $ y O.@.@.@. ./ ^ - . o a.a.a.a.a.a.a.a.a.a.a.",
"a.a.a.a.a.a.a.a.a.a.a.X . b >.;.-.@.@.@.@.O.O.O.@.| 5 # t @.@.@.@. ./ / - . . a.a.a.a.a.a.a.a.a.a.a.",
"a.a.a.a.a.a.a.a.a.a.a.X . b >.;.@.@.@.@.| g e t ; 9 + . : @.@.@.@.O./ / 0 . X a.a.a.a.a.a.a.a.a.a.a.",
"a.a.a.a.a.a.a.a.a.a.a.X . b >.;.@.@.@.@.| ,   . . . X . y O.@.@.@. ./ / - . o a.a.a.a.a.a.a.a.a.a.a.",
"a.a.a.a.a.a.a.a.a.a.a.o . x U ] +.@.@.@.o.f 9 3 X X 5 9 c @.@.O. .) L K q . a.a.a.a.a.a.a.a.a.a.a.a.",
"a.a.a.a.a.a.a.a.a.a.a.a.a.O o , ..>.;.@.O.O.O.V X + I O.O.@.@.` / L O O a.a.a.a.a.a.a.a.a.a.a.a.a.a.",
"a.a.a.a.a.a.a.a.a.a.a.a.a.a.X < { ;.-.O.O.@.@.Z X * T @.@.@.@._ / N o $ a.a.a.a.a.a.a.a.a.a.a.a.a.a.",
"a.a.a.a.a.a.a.a.a.a.a.a.a.a.a.a.r e m ' ' ' ' ! L L ~ ' ' ` ` d 6 8 a.a.a.a.a.a.a.a.a.a.a.a.a.a.a.a.",
"a.a.a.a.a.a.a.a.a.a.a.a.a.a.a.a.$ # s ` / / / ` ` / / / / / / 6 # $ a.a.a.a.a.a.a.a.a.a.a.a.a.a.a.a.",
"a.a.a.a.a.a.a.a.a.a.a.a.a.a.a.a.$ X j N n n K n K n n K n N N 8 X a.a.a.a.a.a.a.a.a.a.a.a.a.a.a.a.a.",
"a.a.a.a.a.a.a.a.a.a.a.a.a.a.a.a.a.a.a.o o o o o X o o o o o o a.a.a.a.a.a.a.a.a.a.a.a.a.a.a.a.a.a.a.",
"a.a.a.a.a.a.a.a.a.a.a.a.a.a.a.a.a.a.a.X X X X X X X X X X X X a.a.a.a.a.a.a.a.a.a.a.a.a.a.a.a.a.a.a.",
"a.a.a.a.a.a.a.a.a.a.a.a.a.a.a.a.a.a.a.a.a.a.a.a.a.a.a.a.a.a.a.a.a.a.a.a.a.a.a.a.a.a.a.a.a.a.a.a.a.a.",
"a.a.a.a.a.a.a.a.a.a.a.a.a.a.a.a.a.a.a.a.a.a.a.a.a.a.a.a.a.a.a.a.a.a.a.a.a.a.a.a.a.a.a.a.a.a.a.a.a.a.",
"a.a.a.a.a.a.a.a.a.a.a.a.a.a.a.a.a.a.a.a.a.a.a.a.a.a.a.a.a.a.a.a.a.a.a.a.a.a.a.a.a.a.a.a.a.a.a.a.a.a.",
"a.a.a.a.a.a.a.a.a.a.a.a.a.a.a.a.a.a.a.a.a.a.a.a.a.a.a.a.a.a.a.a.a.a.a.a.a.a.a.a.a.a.a.a.a.a.a.a.a.a.",
"a.a.a.a.a.a.a.a.a.a.a.a.a.a.a.a.a.a.a.a.a.a.a.a.a.a.a.a.a.a.a.a.a.a.a.a.a.a.a.a.a.a.a.a.a.a.a.a.a.a.",
"a.a.a.a.a.a.a.a.a.a.a.a.a.a.a.a.a.a.a.a.a.a.a.a.a.a.a.a.a.a.a.a.a.a.a.a.a.a.a.a.a.a.a.a.a.a.a.a.a.a.",
"a.a.a.a.a.a.a.a.a.a.a.a.a.a.a.a.a.a.a.a.a.a.a.a.a.a.a.a.a.a.a.a.a.a.a.a.a.a.a.a.a.a.a.a.a.a.a.a.a.a.",
"a.a.a.a.a.a.a.a.a.a.a.a.a.a.a.a.a.a.a.a.a.a.a.a.a.a.a.a.a.a.a.a.a.a.a.a.a.a.a.a.a.a.a.a.a.a.a.a.a.a.",
"a.a.a.a.a.a.a.a.a.a.a.a.a.a.a.a.a.a.a.a.a.a.a.a.a.a.a.a.a.a.a.a.a.a.a.a.a.a.a.a.a.a.a.a.a.a.a.a.a.a.",
"a.a.a.a.a.a.a.a.a.a.a.a.a.a.a.a.a.a.a.a.a.a.a.a.a.a.a.a.a.a.a.a.a.a.a.a.a.a.a.a.a.a.a.a.a.a.a.a.a.a.",
"a.a.a.a.a.a.a.a.a.a.a.a.a.a.a.a.a.a.a.a.a.a.a.a.a.a.a.a.a.a.a.a.a.a.a.a.a.a.a.a.a.a.a.a.a.a.a.a.a.a."
};
