/* XPM */
static char *_4dcecf1a46642619516aa9cc4c0d350bV81DrSYR5Y2Pye0[] = {
/* columns rows colors chars-per-pixel */
"50 49 250 2 ",
"   c #060300",
".  c #0B0300",
"X  c #040A00",
"o  c #0B0A00",
"O  c #140200",
"+  c #1B0300",
"@  c #130B00",
"#  c #1C0B00",
"$  c #170708",
"%  c #151300",
"&  c #1D1200",
"*  c #1E1A01",
"=  c #220C01",
"-  c #250700",
";  c #241300",
":  c #241B00",
">  c #2B1C01",
",  c #281503",
"<  c #311C01",
"1  c #2D1917",
"2  c #252100",
"3  c #2C2300",
"4  c #2D2A00",
"5  c #332400",
"6  c #352C01",
"7  c #3B2D01",
"8  c #342E0C",
"9  c #3A3303",
"0  c #282515",
"q  c #383216",
"w  c #393229",
"e  c #463605",
"r  c #553C01",
"t  c #443014",
"y  c #47332B",
"u  c #4D4600",
"i  c #574901",
"p  c #55481B",
"a  c #554E11",
"s  c #6D5C00",
"d  c #675301",
"f  c #755501",
"g  c #654709",
"h  c #73670F",
"j  c #594A26",
"k  c #4D473B",
"l  c #4F502C",
"z  c #674F2F",
"x  c #706631",
"c  c #5B663B",
"v  c #3C3B43",
"b  c #4D3A45",
"n  c #554A46",
"m  c #595549",
"M  c #5D5D53",
"N  c #524B4F",
"B  c #64594C",
"V  c #6C5A5B",
"C  c #676559",
"Z  c #76745B",
"A  c #746C56",
"S  c #56576E",
"D  c #6A5967",
"F  c #5E656B",
"G  c #686967",
"H  c #737469",
"J  c #777873",
"K  c #746D69",
"L  c #5E6947",
"P  c #89730B",
"I  c #957731",
"U  c #83775D",
"Y  c #83776E",
"T  c #7F817C",
"R  c #998B0F",
"E  c #A59418",
"W  c #B8A817",
"Q  c #9E9325",
"!  c #989033",
"~  c #BB9A3B",
"^  c #AB982C",
"/  c #AEA526",
"(  c #BBA529",
")  c #BCB526",
"_  c #B5A636",
"`  c #BEB63B",
"'  c #AAA335",
"]  c #D4AB04",
"[  c #CBB502",
"{  c #DBB806",
"}  c #DAB917",
"|  c #CEAF13",
" . c #E7AE06",
".. c #E4BD02",
"X. c #EBBC04",
"o. c #E4BC0B",
"O. c #ECBC0C",
"+. c #E7B407",
"@. c #F3BA01",
"#. c #F4B708",
"$. c #E4BB13",
"%. c #EABB14",
"&. c #E6B619",
"*. c #F4BB18",
"=. c #EEAE11",
"-. c #C39D34",
";. c #C4AB2B",
":. c #D6B927",
">. c #C5B737",
",. c #D7BA39",
"<. c #CDAF31",
"1. c #E6BA28",
"2. c #EFBB2F",
"3. c #DDC505",
"4. c #DCC617",
"5. c #DBCE11",
"6. c #E5C303",
"7. c #ECC404",
"8. c #E5CC01",
"9. c #ECCB02",
"0. c #E6C30B",
"q. c #EBC40C",
"w. c #E5CA0B",
"e. c #ECCB0B",
"r. c #F3C502",
"t. c #F3CB02",
"y. c #FACB01",
"u. c #F3C40C",
"i. c #F3CA0A",
"p. c #FBC809",
"a. c #E9D206",
"s. c #F4D203",
"d. c #F4D20B",
"f. c #F9D10C",
"g. c #F9D305",
"h. c #E3C414",
"j. c #EDC313",
"k. c #E4CB13",
"l. c #ECCA13",
"z. c #EAC41B",
"x. c #E5CA1B",
"c. c #ECCB1A",
"v. c #E3C21A",
"b. c #F4C514",
"n. c #F3CB13",
"m. c #F8C918",
"M. c #E9D618",
"N. c #F8D516",
"B. c #F3E219",
"V. c #D9C923",
"C. c #DBC435",
"Z. c #D9C63D",
"A. c #D1C935",
"S. c #E8C929",
"D. c #F5CC27",
"F. c #EBD32D",
"G. c #E7D426",
"H. c #F2D42E",
"J. c #F8D827",
"K. c #E4CB33",
"L. c #EDCC3C",
"P. c #E7C937",
"I. c #F4CE34",
"U. c #F9C838",
"Y. c #E8D739",
"T. c #F8D737",
"R. c #F5E43B",
"E. c #F0E227",
"W. c #968A4E",
"Q. c #B59947",
"!. c #AC9B51",
"~. c #B5A645",
"^. c #B6B144",
"/. c #89857A",
"(. c #948979",
"). c #9A937D",
"_. c #908B67",
"`. c #A6986E",
"'. c #A9A66B",
"]. c #9CA042",
"[. c #C5A947",
"{. c #C8B946",
"}. c #D8B845",
"|. c #CAAF59",
" X c #E9BB46",
".X c #CBB466",
"XX c #C09C48",
"oX c #DAC648",
"OX c #D4CB4E",
"+X c #E2C54C",
"@X c #E5CA45",
"#X c #E8D847",
"$X c #F9D647",
"%X c #E4C855",
"&X c #F3DA58",
"*X c #F1D04C",
"=X c #FAE646",
"-X c #F0E24F",
";X c #DCCA66",
":X c #EADA64",
">X c #EDE670",
",X c #927F8B",
"<X c #978B86",
"1X c #9D9587",
"2X c #8F8B8B",
"3X c #A39B89",
"4X c #A69D98",
"5X c #A9A58B",
"6X c #A9A498",
"7X c #B2A79A",
"8X c #B9B09F",
"9X c #B6A9A7",
"0X c #B4ADAF",
"qX c #A89CA7",
"wX c #CABCA9",
"eX c #D1CEB7",
"rX c #E5E0BF",
"tX c #B6AFC9",
"yX c #C9B7C4",
"uX c #C0ABD6",
"iX c #BEC4D0",
"pX c #CAC7C6",
"aX c #DADBC9",
"sX c #DBDDDA",
"dX c #D6CBCF",
"fX c #E5DAD8",
"gX c #DBE6CD",
"hX c #DAE5D6",
"jX c #E8E7CC",
"kX c #E6E7DA",
"lX c #F0F2D9",
"zX c #D9D9E7",
"xX c #D4D0EA",
"cX c #E6DAE8",
"vX c #ECDAF5",
"bX c #DDE4ED",
"nX c #E8E6E6",
"mX c #F4E9E8",
"MX c #EEF3E8",
"NX c #F2F2E3",
"BX c #FBFAE8",
"VX c #ECEAFD",
"CX c #E9E6F7",
"ZX c #FBEDFE",
"AX c #F5EAF7",
"SX c #ECF3F5",
"DX c #FDFCF4",
"FX c #FEF4FF",
"GX c #FEFCFD",
"HX c #F6F4F6",
/* pixels */
"BXrXL * 0 w 1 t e g z z y b n k m c n m M C G H G G G F F F F S S S S G G M m m M k c l l L N D 0XGX",
"BX6 o l j p j p r r r r t r e 9 9 6 5 4 3 3 2 2 * * & * * 2 * % : * & , > 5 3 > 2 4 4 9 6 6 5 1 w pX",
"rX. x >X>X:X>X+X&X#XP.$X*X*XR.R.F.I.I.I.I.L.P.P.C.C.C.P.K.K.S.C.C.C.V.S.G.Y.$X@XoX:XOX>X:XoX%X.Xo 2X",
"wX% ].OXA.#X=XT.4.w.w.k.b.q.3.8.t.y.i.i.m.m.b.n.m.m.n.f.f.g.g.g.s.s.s.g.t.t.8.h.S.$XY.=X$XK.F.oX4 2X",
"cX* ].` #XY.Y.R.{ N.N.f.N.s.8.9.q.q.b.j.%.j.j.j.b.n.n.e.7.9.9.7.f.r.r.y.t.7.g.N.j.1.U.$X$XU.$.Z.% H ",
"xXo ].OXR.=XR.H.] q.7...e.c.c.I.I.L.L.L.P.I.T.T.F.F.H.F.F.F.H.H.D.m.m.N.f.g.g.a.i.$.$X$X$X$Xh.@X* T ",
"pX# ' V.[ S.H.D.m.N.i.l.T.P.-.-.Q.~.^.~._ ` >.>.>.>.>.` ^.^.^.|.[.}.-.;.,.F.M.3.8.6.z.I.I.D.$.P.2 J ",
"eX; E x.M.l.{ l.n.c.h.F.L.P < + . .   o o o o @ % % % % @ X o % O + O O i _ R.5.M.a.{ k.z.} c.@X2 T ",
"wXO W a.s.t.n.n.l.4.#XZ.h % p wX1X5X(._._._.5XU U ).).(.(.1X(.4X1X).6X2X% 2 ^.-X5.8.s.d.l.j.m.@X2 J ",
"wX+ W s.9.y.f.n.H.K.{.i X x NXMXMXDXDXDXDXmXFXZXGXGXAXFXFXGXAXMXBXBXbXHXiX0 % ' G.B.9.y.f.i.N.P.2 J ",
"yXO ) a.t.t.p.n.:.%X6 @ '.MXMXsXgXjXeXkXmXmXnXAXcXvXvXnXkXsXNXBXkXkXbXCXSXtXw % / H.u.@.p.f.m.@X: G ",
"uXO ) N.t.y.y.n.$X^ . /.BXMXsXMXBXgXjXBXHXGXFXAXFXFXGXHXFXBXlXaXlXaXHXVXVXGXaX& f U.m.p.p.p.b.$X: H ",
"tX. ) M.8.t.y.t.=XP O pXlXeXDXHXMXbXGXsX4X4XqXqX9X4X6X4X6X0XpXBXrXlXlXnXzXzXfXe g $Xm.p.g.y.t.#X3 T ",
"0X  ) B.7.t.y.t.S.E O 9XBXMXmXzXSXSXbXv . X         . %     0 8XjXBXlXfXVXZXBX< f $X#.p.g.g.d.Z.2 T ",
"qXX ) M.q.u.y.r.J.E - yXnXmXZXAXCXSXwXo i ].Q / / R E ' ! W.% c HXcXnXGXSXdXgX5 f *Xo.t.8.a.M.OX* T ",
"5XX ) E.j.b.y.r.S.E + yXCXAXvXvXcXGXwXo Q >XV.E.B.M.R.#XOX>X< k ZXvXHXzXSXSXfX6 d *Xl.B.3.8.M.A.2 T ",
"5X@ ) G.c.f.t.i.K.R . pXVXvXCXCXnXDX0X# Q K.5.a.8.8.a.5.M.A.4 N AXAXfXAXAXAXmX5 d Y.l.8.d.M.8.#X4 T ",
"3XO ` G.l.g.9.a.R.Q $ wXZXVXCXAXDXnXpXO E R.k.B.a.g.B.5.M.#X> b AXfXHXmXcXZXmX< s F.l.a.N.n.9.K.: J ",
"1XO ` G.l.s.9.9.G.R , wXNXkXjXjXaXHXdXO ^ R.4.k.E.x.H.4.Y.OX; N mXfXDXnXvXVXcX7 s K.k.e.N.l.9.L.: J ",
"1X@ {.G.l.t.t.t.N.R O 7 5 = & % 5 q < O / V.Y.C.;.( [.{.OX! O M mXkXkXsXFXCXdXt s P.x.w.e.n.t.F.3 J ",
"<X@ {.G.l.i.t.t.e.[ i d i i s s i e e s ) -X{.e + - O O   O 1 0XmXNXgXnXFXzXfX5 s #XH.l.q.i.f.K.> J ",
"<X@ OXG.j.i.y.s.9.J.@X&X&X$X$XG.R.=X#XoX#X{.u O ,X0XqX9X3X`.wXcXkXhXkXHXzXAXNX> d oXF.c.q.n.i.:.: H ",
"<X@ {.G.q.i.t.y.9.n.S.I.S.4.k.e.a.5.:.&X^.e 6 9XZXZXZXZXBXBXNXkXsXkXMXSXbXNX5X5 P C.h.l.q.q.i.K.: G ",
"/.o >.G.q.p.r.y.f.9.c.F.J.e.u.f.g.e.F.@Xi . 5XAXVXxXVXnXfXfXjXlXnXMXnXsXkXeX6 4 ( T.h.f.r.7.n.@X: H ",
"H 3 A.x.l.u.r.r.t.e.j.c.u.i.p.p.N.j.S.+X+ x BXhXsXSXSXMXbXnXDXmXmXCXnXmXeX4 * ` C.k.9.t.t.r.j.@X3 J ",
"Z & >.4.w.r.u.u.r.i.n.l.i.t.p.p.r.X.S.@X= A BXgXhXhXgXhXHXzXfXdXfXdXmXeX9 4 Q -Xx.w.9.t.t.7.j.+X3 J ",
"A ; A.4.7.u.u.u.i.i.l.e.t.y.p.p.y.s.k.Z.+ U BXaXMXlXgXhXxXS + # < , $ = # R @X4.k.9.9.t.9.9.c.+X2 H ",
"U , A.x.e.r.*.u.i.9.e.e.9.i.b.b.y.s.e.,.= (.GXnXgXhXhXMXvXy = x g h g s _ &XG.M.a.9.t.t.t.7.z.+X> H ",
"K : Z.x.q.u.b.u.e.9.e.a.9.t.b.b.7.e.x.,.= ,XVXxXbXkXkXgXfXt i :X*X&X:X%X#X:.3.9.i.r.r.t.9.9.z.+X> G ",
"V & Z.k.6.u.b.b.9.8.8.8.8.9.b.m.n.l.k.>.+ ,XAXVXbXkXkXjXnXq u R.G.h.P.1.H.3.d.d.i.u.r.y.t.7.z.oX2 F ",
"V , ,.k...u.b.q.9.8.a.a.a.8.n.z.c.w.k.:., (.NXSXMXHXDXAXAXk u V.3.s.l.0.l.a.t.f.m.*.*.p.t.9.c.oX: M ",
"V , }.k...X.r...9.8.8.8.8.s.j.l.z.5.5.V.O p Z Z C Z H G 2X% u R.8.9.9.f...g.t.X.b.b.u.r.t.9.z.oX3 C ",
"B -  X*.X.@.r.t.7.7.b.b.u.7.e.w.N.[ 8.G.h * % o o X % X - e _ V.8.7.9.7.9.r.7.r.7.u.7.7.u.7.7.L.9 C ",
"B < @X%.#.p.@.r.7.r.*.*.*.u.e.w.3.e.8.4.:X'.`._.'.'.'._.`._.{.F.5.7.7.7.7.q.e.q.7.e.X.7.i.7.7.L.5 m ",
"m < %X&.O.#.X.7.7.q.*.*.*.b.k.h.b.e.{ :.I - O , . # . # - - d :.k.w.q.q.q.q.q.l.q.q.q.q.j.j.O.@X6 m ",
"k 6 +X&.O.#.X...7.7.*.*.*.q.q.0...b.J.<.= t ,XD S K V K D - i L.v.0.q.q.q.q.0.q.q.q.o.0.l.0.o.L.u B ",
"y 6 oX4.X...6.6.6.6.O.O.@.X.6.6.X.O.z.,.+ <XFXCXZXCXCXmXAXt u C.h.6.6.6.8.0.6.6.6.0...3.q.6.o.P.e m ",
"q 9 oX} O.X.6.6.6.6.#.#.@.7.7.6.u.j.| <.+ Y zXzXVXxXnXkXAX< r #Xh.6.7.7.7.6.6.6.6.0.6.6.0.6.6.oX9 N ",
"q 9 oX} %...o...6...X.#.@.@.6.6.] N.x.( $ <XGXSXbXhXMXgXfXe i L.h.6.7.6.7.6.o.0.o.6.o.o.0.o.o.@X9 m ",
"8 e @X} 1.=.%.{ ....=.#.@.@.@...n.[ } ;.# e _.L T T T L Y < i ,.$.q.O.q.q.o.O.o.$.$.$.$.%.$.$.oXe m ",
"w r  X| =.2.&.&.o.+.=.=.#.#.=.O.=.O.D.:.P ; o o X   o . O - f :.&.%.O.%.%.%.&.&.&.&.&.&.&.} 1.}.9 M ",
"> t %X2.2.$X1.] { +.=.=.=.#.=.+.@.@.%.2.}.-./ ( ' ^ ' Q.Q.-.<.U.%.O.O.%.%.%.%.&.&.&.1.U.U.2.1. X8 n ",
", i ,.&.2.$XU.c.{ .. .X.@.@.X.X.@.#. .=.2.2.v.4.P.P.2.1. X X2. .O.@.X...O.o.o.o.$.] H.T.T.T.} }.p n ",
"6 i <.2.$X&.&.} [ {  . .@. .{  .@.@.#.#.&.&.....$.z.1.=.=.2.D.#.X.7.6.........6.{ ] T.J.T.$X} ,.u 0 ",
"6 u ) :.*X XU.V.[ [ } +.+. .{ { ] ]  .=.&.1.....] $.%.*.1.1.+.X.o.6.3.{ 3.{ 4.} 4.| F.G.H.$X| OXl w ",
"q a OX,.,.}. XW :.} :.,.:.1.:.<.S.:.1.,. X2.z.$.2.:.:.2.2.2.1.$.} } 4.:.:.:.:.:.C.| >.@X@XoX) ;Xp k ",
"v 0 '.|.|..X.X!.' _ ~ -.-.-.Q.~.~ ' ~ !.!.Q._ -.[.XX~ ~ ~.[.;.<.<.<.,.}.}.}.}.{.|.^.[..X.X.X.X'.. n ",
"qX. < - - = = # & & # - - - # # @ . @ ; + + + , - - = ; = ; & & , < < < < < < > = 7 5 ; > 7 e # & 6X",
"GXpXY /.(.1X2X3X1X5X1X3X4X7X5X4X3X7X7X7X4X6X7X8X8X9X8X7X7X6X3X).Y (.Y A Z Z C B B C m m C n k B pXDX"
};
