/* XPM */
static char *result[] = {
/* columns rows colors chars-per-pixel */
"50 49 249 2 ",
"   c #2F1200",
".  c #3B1A03",
"X  c #3E2309",
"o  c #3E2A17",
"O  c #451D04",
"+  c #541F00",
"@  c #432403",
"#  c #4C2A03",
"$  c #45240C",
"%  c #492708",
"&  c #5C2A03",
"*  c #562709",
"=  c #5C2B0A",
"-  c #4A320E",
";  c #593309",
":  c #462816",
">  c #4B2B14",
",  c #532B13",
"<  c #582B16",
"1  c #4B3418",
"2  c #5C3314",
"3  c #593419",
"4  c #612E06",
"5  c #632E0C",
"6  c #66330E",
"7  c #68390D",
"8  c #642C13",
"9  c #672E1B",
"0  c #633513",
"q  c #6A3515",
"w  c #64351C",
"e  c #6A331C",
"r  c #653A1B",
"t  c #6A3B18",
"y  c #733E19",
"u  c #462E20",
"i  c #493828",
"p  c #533A24",
"a  c #563828",
"s  c #5B3C2C",
"d  c #483B35",
"f  c #573C31",
"g  c #683A23",
"h  c #723A25",
"j  c #5E4119",
"k  c #6E4D16",
"l  c #6A4518",
"z  c #77471A",
"x  c #73431C",
"c  c #58422C",
"v  c #584436",
"b  c #694624",
"n  c #754926",
"m  c #7E4B23",
"M  c #695329",
"N  c #775429",
"B  c #62453C",
"V  c #664A38",
"C  c #744B33",
"Z  c #67523A",
"A  c #6D523B",
"S  c #755432",
"D  c #7F5132",
"F  c #72543C",
"G  c #7A573A",
"H  c #7B6635",
"J  c #383540",
"K  c #464545",
"L  c #554A46",
"P  c #534F52",
"I  c #595A5A",
"U  c #684D43",
"Y  c #6C5444",
"T  c #685648",
"R  c #745945",
"E  c #755947",
"W  c #745C4A",
"Q  c #665B5B",
"!  c #7A6148",
"~  c #6C655F",
"^  c #7B6353",
"/  c #5A5D62",
"(  c #585C66",
")  c #5C6263",
"_  c #5B6169",
"`  c #686567",
"'  c #756B65",
"]  c #746E6B",
"[  c #75716D",
"{  c #797268",
"}  c #706F71",
"|  c #7A7575",
" . c #995D1F",
".. c #92641E",
"X. c #8B5D24",
"o. c #855A2B",
"O. c #8C5B2B",
"+. c #9A5E26",
"@. c #925E2D",
"#. c #985E28",
"$. c #834D30",
"%. c #825334",
"&. c #885B38",
"*. c #915E37",
"=. c #8A6326",
"-. c #8D622C",
";. c #936324",
":. c #9C6326",
">. c #94632B",
",. c #9A642C",
"<. c #956929",
"1. c #9C692C",
"2. c #846134",
"3. c #8E6432",
"4. c #8A663A",
"5. c #946433",
"6. c #9A6533",
"7. c #946A34",
"8. c #9C6A33",
"9. c #946339",
"0. c #99643A",
"q. c #946A3B",
"w. c #9B6B3A",
"e. c #8E7239",
"r. c #987238",
"t. c #A2642D",
"y. c #A4692E",
"u. c #A56933",
"i. c #A36D3C",
"p. c #A57639",
"a. c #B2733D",
"s. c #885C43",
"d. c #886746",
"f. c #956745",
"g. c #9C6C43",
"h. c #8E7148",
"j. c #967449",
"k. c #836B50",
"l. c #996D53",
"z. c #987654",
"x. c #A16F45",
"c. c #A4734B",
"v. c #A77648",
"b. c #B47D4C",
"n. c #A67556",
"m. c #B27E54",
"M. c #86756D",
"N. c #A57B62",
"B. c #7D8379",
"V. c #9C8151",
"C. c #A8854C",
"Z. c #AA8758",
"A. c #B58254",
"S. c #B28E52",
"D. c #B98859",
"F. c #8D8277",
"G. c #978778",
"H. c #AD8A62",
"J. c #BA8964",
"K. c #BC9664",
"L. c #B99668",
"P. c #AB927A",
"I. c #BC9874",
"U. c #BDA26A",
"Y. c #C38F56",
"T. c #C28D66",
"R. c #C39364",
"E. c #C79869",
"W. c #C69C78",
"Q. c #D39E77",
"!. c #CAA66D",
"~. c #D2B16E",
"^. c #C8A778",
"/. c #D6A979",
"(. c #DAB67D",
"). c #E3B07C",
"_. c #8B8A85",
"`. c #949190",
"'. c #A79890",
"]. c #B39E93",
"[. c #B8A38E",
"{. c #A6A297",
"}. c #B7A599",
"|. c #9899A2",
" X c #A49EA4",
".X c #9BA2A4",
"XX c #A8A8A9",
"oX c #B8B6AC",
"OX c #AAABB8",
"+X c #B3AEB0",
"@X c #B9B7B5",
"#X c #B6B9BB",
"$X c #BABBBD",
"%X c #C89E82",
"&X c #CAA585",
"*X c #D8AA83",
"=X c #CBB389",
"-X c #D5B48B",
";X c #D6B888",
":X c #CAAD95",
">X c #D7B895",
",X c #E3B888",
"<X c #E4BB8C",
"1X c #E6B994",
"2X c #F3BE96",
"3X c #D2AEA3",
"4X c #C9B5AA",
"5X c #D4B9A7",
"6X c #C8B3B2",
"7X c #C2BDB4",
"8X c #C7BCB8",
"9X c #DCC28A",
"0X c #DDC294",
"qX c #DEC199",
"wX c #E4C28C",
"eX c #EDC599",
"rX c #D9C2A3",
"tX c #C6C2B8",
"yX c #D8C6B9",
"uX c #F0CDAE",
"iX c #AEB4C0",
"pX c #B8B9C4",
"aX c #BFC3C6",
"sX c #CDC8CA",
"dX c #D6C9C6",
"fX c #DDCEC3",
"gX c #DDD3C6",
"hX c #C9CAD3",
"jX c #D3CBD4",
"kX c #CAD5D8",
"lX c #CBD4DC",
"zX c #D6D7D8",
"xX c #E1CEC9",
"cX c #E6D6C8",
"vX c #E4D3CC",
"bX c #E8D7D2",
"nX c #F6DFD9",
"mX c #E9E3DA",
"MX c #CED3E4",
"NX c #D4D9E6",
"BX c #ECDDE3",
"VX c #EFEAE9",
"CX c #FCF5EC",
"ZX c #FAF5F6",
"AX c #F3FDF5",
"SX c #FFFBF5",
"DX c #FCF4FD",
"FX c #F4FEFA",
"GX c #FDFDFD",
/* pixels */
"x 5 5 + q 3 b b 3 < g g 9 h h 9 8 = 8 e w 0 8 q h g 9 h 8 e h e 9 9 9 9 9 9 g 9 e 8 9 9 3 3 ; & ; 4 ",
"4 4 $.h e r 3 g g w h g 9 9 h b g e r b 2 g b e e < 8 n w w q e 3 g g g g h w , e e q t g g t k l k ",
"5 $.W.W.W.W.I.W.W.&X&XJ.3 2 4.I.I.^.^.I.^.^.&XW.j.r g l.=XI.I.^.&X&X%X&X%Xd.> b L.-X&XI.&X%XI.!.R.R.",
"= s.1X,X*X<X-X<X<X<X1XK.2 , j.qXqX=X;X=X9X=X;X0Xz.# - H.0X;X-X>XqX-X-X>XqXh.@ l H.;X=X0X5X>X=X9XwX,X",
"< &.>Xz.j.L.wX(.~.9X9XC.; # Z.^.e.e.!.9X;XU.wX0Xe.; @ L.U.3.V.;X;X&X;X;X>Xe.# ; U.H.e.V.5X=X=X~.;X/.",
": A P.j.2.v.(.~.C.S.(.U.7 # g.J.2.3.R.~.~.C.~.,Xr.7 = A.S.o.<.!.,XT.S./.,X7.; 7 R.j.=.7.:X>XL.C.(.,X",
"i Y Y 1 h.C.(.~.e.S.9XZ.7 4 x.T.o.O.K.,XK.O.D.,Xx.4 4 b.v.5.O.E.uXY.9.Q.<X9.4 7 R.g.>.6.:XyXZ.e./.<X",
"`.4X'.T - h.0X~.M h.9XI.5 5 n.T.9.*.E.uXW.o.D.uXn.& 8 J.c.9.9./.2Xm.&.W.2X0.4 0 R.b.g.q.[.5XV.N E.<X",
"bXDXCXoXc k.&XU.S k.[.P.9 < l.N.&.G z.&XN.D l.&Xs.< g l.l.s.f.I.%XN.s.N.%Xs.w 2 n.2.%.G [.[.V.e.K.<X",
"GXDXGXdXf g Z F c v T K f f U U U U Z W Y v U ^ f f B B V a f Y Y v B B ^ U f v R V v M Z Z j N C.;X",
"GXGXGXjXL _.5X5X6X6XpXMXtX@X@X+X@XtXoXoX7XtX@XtX6XsXdX@XtXtX8X7X7XtXtXsX+X@XoXtX@XtXoXtXrXP.M e.K.wX",
"kXDXDXOXK yXDXCXDXDXDXDXGXGXGXAXFXFXFXFXAXFXFXFXFXGXFXGXAXSXFXAXFXFXAXFXDXFXFXGXAXAXAXAXAXrXk H K.,X",
"{.VXiX.XK .XzXsXjXzXzXzXkXkXkXkXNXkXkXkXNXkXkXkXkXNXMXMXzXzXNXhXkXkXzXkXMXMXNXMXkXlXzXzXdX].V ! Z.-X",
"|.FXOX`._ ( ` ~ ' P I ` ) ) ) ) ) ) ) ) / / ) ) / ( ( _ _ / ` I ` I ) ) _ _ _ ` ` / I I Q G.W d.H.>X",
"_.zXXXXXK L F.{ { { { { { [ [ [ [ [ [ | ] ] ] | | | } } | ' [ [ | ' [ [ } } } | B.{ { { M.].! M Z.1X",
"L P L _.` `.bXyXyXcXcXyXcXgXcXvXfXcXcXcXvXbXxXvXvXxXbXxXvXxXxXxXcXgXgXzXgXMXzXgXgXcXyXuXbXrXd.2.Z.;X",
"M.i P }.T u B c c c c c f a f f a a s p a B a a a f U f f f a a 1 c c c o c v f p p p j a $ * o.v.*X",
"yXyXyX4Xv $ . . X   X $ : O * , O % , O O , O , : O < u O : O % X # X - - o : $ % # # @ : % l r.b.<X",
"G.3X[.V . G f.N N n n.d.8 < n D y n *.&.y n n l.s.+ 9 h N n n f.N m l D z.C * 0 m N z z l.%.z X.p.2X",
"$ X . % @ J.T.w.3.q.^.I.5 9 *.c.9.x.R.R.0.0.x.*Xm.* 9 s.x.6.w.E.S.q.-.C.eXg.; x g.w.1.y.%XZ.-.X.a.).",
"- . , = $.A.b.6.5.O.E.K.4 7 $.w.9.O.E.p.>.6.>./.c.& q %.6.,.1.Y.<.<.X.w.*X5.& y 5.6.,.8.W.0.>.;.p.).",
"; 3 D o.O.b.b.t.@.-.E.K.4 7 z 8.6.X.S.p.;.>.>./.c.& y O.t.+.t.Y.1.1.;.8.,Xg.= q *.6.>.5.T.5.;...p.).",
"2 n g.9.@.b.a.:.;.>.E.L.4 7 z 0.7.=.S.p.=.>.>./.v.4 t $.t.+.t.Y.<.y.;.9.<Xg.* 0 %.5.0.w.J.3.>...p.).",
"2 b g.@.,.a.u.:.,.-.K.K.= 6 o.0.5.>.b.1.>.>.-./.c.& t $.t...y.a.>.1.>.9.*X&., g d.d.4.9.J.9.>.=.p.).",
"2 x 0.*.t.a.t.+.>.-.K.L.6 7 z 0.5.7.p.8.>.>.@./.c.= 9 $.t.+.t.b.;.>.q.q.eXl.a a C F ! z.Z.3.e...p.(.",
"6 t 0.u.t.u.t.:.1.=.H.L.5 q m x.5.6.1.1.>.>.@.Q.c.= 9 s.t.#.u.u.<.7.e.d.k.f . o : : 1 p 4.2.<...1.(.",
"; l 6.*.:.y.t.:.8.o.H.L.8 q n 0.5.w.@.8.6.6.@.Q.n.* 9 $.u.@.,.i.3.3.2.b $ A M.:X4X'.! 1 n l e.=.r.(.",
"0 z 0.#.+.t.t.:.8.H Z.I.8 q h 0.*.w.O.8.6.6.@.Q.c.8 e $.i.#.>.6.3.=.b @ A ].nXDXSXCXyXF.* ; =.=.<.(.",
"q y *.6.:.,.,.>.q.&.Z.I.5 5 m 6.6.,.6.1.,.6.O.Q.c.= 0 %. .y.:.5.j.b u { `.hXDXGXGXGXmX{.`.d i ! h.W.",
"0 y u.0.,.,.<.>.7.-.H.I.5 0 m 6.6.6.6.,.,.6.O.E.n.= 0 %.t.:.>.7.G - L +X|.hXGXFXVXGXAXG.+X{ o M j.^.",
"0 z 6.#.,.,.,.>.0.&.Z.W.5 q $.*.6.,.1.,.,.6.@.E.v.= 0 %.t.+.>.q.N X M.jX X`.MXFXFXAXoXG.sXtXo - j.^.",
"q y 0.,.:.,.<.;.7.&.m.T.5 6 m 0.0.6.6.,.,.6.O.E.c.= 0 %.:.;.i.5.C 1 :XjX`.pXpXOXiXXX_.{. XCXc - h.^.",
"6 y *.t.:.,.:.,.8.O.m.L.8 6 $.6.6.6.6.,.,.6.O.T.c.* q $.+.:.i.3.b - [.dX( DXDXpX|.`.XXB.B.VXv 1 h.W.",
"6 y 0.t.,.:.:.<.8.O.m.K.5 6 $.*.6.5.1.,.,.8.@.E.x.4 q $.u.#.6.7.N @ '.CXQ  XMXpX|.|.} K #XgXc 2 4.W.",
"5 y 0.6.,.:.t.;.1.O.b.T.5 6 $.#.6.6.6.,.#.6.@.R.g.= r D ,.#.>.q.H - ! bX+XJ K ( P ( J } BX].c j &.W.",
"0 y 0.6.<.:.:.:.1.O.b.D.6 4 $.5.6.,.6.,.>.w.O.R.g.= w D u.u.>.5.4.3 1 G.VXMX_ P P J .XVXfXB $ S j.W.",
"6 y 0.0.,.,.;.;.6.6.i.T.6 6 $.6.0.6.,.,.6.w.@.A.c.0 w %.#.6.@.6.r.N - p ' @XBXhXkXmXsX_.U : C &.3.W.",
"0 q g.*.,.<.,.,.1.#.u.T.5 6 $.*.6.>.,.>.,.6.@.A.c.= 0 D t.u.6.6.q.2.c - : L Q ` ` ~ P v a : S 4.&.W.",
"2 b x.9.5.8.1.<.1.#.i.Y.5 6 z #.6.6.,.>.,.6.@.A.x.= 0 D #.t.6.>.9.q.N X a i d B v c i i $ - 2.q.O.T.",
"q b f.*.5.6.>.>.,.6.x.Y.6 6 $.0.8.6.,.,.6.6.#.A.c.= 0 D t.#.#.#.>.w.D # $ > u : o o : : % t 7.7.O.K.",
"g b d.j.q.8.>.@.>.6.x.D.5 6 $.#.0.5.,.>.6.6.@.m.x.= 0 %.u.+.:.t.,.8.5.b % < < : : : > % ; N <.<.X.Y.",
"3 < n D 4.q.<.;.6.6.i.b.5 6 m 6.6.#.,.#.,.,.O.m.g.* 0 $.u.+.:.t.,.>.>.O.= * O > $ O O % n 3.<.<.;.Y.",
"F s.&.w N 5.q.7.5.6.w.A.6 7 m *.6.6.,.>.6.6.O.m.g.= 9 %.t.t.t.t.t.<.>.6.*.e + * < % = n =.r.....;.S.",
":XuXrXz.l o.r.8.7.6.x.D.q q $.0.i.8.8.,.8.u.5.A.c.8 e &.t.a.y.:.y.y.,.0.K.9.9 * 0 n &.g.7.p.....;.D.",
"GXDXGX8Xc c ! N S C F k., 3 c M F F F R E A F k.F > > b Z A A Z S A A A k.V p p B W E B R F S 7.X.b.",
"GXDXGXjXL Z k.Z F s.W W F R E E ! W E R R Y E ^ W A Y ! W ! R ! ! W W W W T Y Y E W W W W R N -.3.D.",
"ZXGXGXsXK G.cXyXyXyXfXyXcXcXxXfXyXcXfXfXfXxXgXyXfXcXcXyXfXfXfXfXfXgXfXgXyXgXvXvXfXdXfXfXyXP.S 2.3.A.",
"8XDXhX XL {.SXSXSXSXGXGXCXSXSXSXSXDXGXSXSXSXSXCXSXGXSXSXSXSXSXSXSXSXSXDXGXSXDXDXGXGXGXDXZX4XS 2.5.n.",
"{.DXOX|.Q _.@XXXoX#XOXiXpX$X$X$X$X$X#X#X#X#X#X@X$X@X$XpX#X#X#X#X#X#X#X#XaXpX#X#X#XpXpX#X}.'.C &.g.n."
};
