/* XPM */
static char *result[] = {
/* columns rows colors chars-per-pixel */
"50 49 242 2 ",
"   c #180A06",
".  c #1B0E0B",
"X  c #0F130E",
"o  c #11110E",
"O  c #150F11",
"+  c #0F1411",
"@  c #141412",
"#  c #1A1515",
"$  c #141914",
"%  c #1B1B15",
"&  c #181718",
"*  c #1C1C1A",
"=  c #26140E",
"-  c #371701",
";  c #251A15",
":  c #211D1B",
">  c #1B2117",
",  c #1E201A",
"<  c #23231C",
"1  c #28241B",
"2  c #29291F",
"3  c #36291D",
"4  c #262520",
"5  c #292623",
"6  c #272823",
"7  c #2C2B23",
"8  c #2E2B28",
"9  c #332D24",
"0  c #332D29",
"q  c #333226",
"w  c #3C3425",
"e  c #36332B",
"r  c #3B342B",
"t  c #3D3A2D",
"y  c #3A3732",
"u  c #3D3B33",
"i  c #4D1900",
"p  c #472508",
"a  c #592B07",
"s  c #4C330A",
"d  c #5B3409",
"f  c #4A2A13",
"g  c #4D3418",
"h  c #573519",
"j  c #622D04",
"k  c #643304",
"l  c #67340C",
"z  c #653818",
"x  c #713C10",
"c  c #443B2C",
"v  c #483829",
"b  c #563B28",
"n  c #423A36",
"m  c #4A3E30",
"M  c #683D25",
"N  c #6A4417",
"B  c #794415",
"V  c #764719",
"C  c #7A431C",
"Z  c #47412D",
"A  c #53442D",
"S  c #59462E",
"D  c #444134",
"F  c #4C4434",
"G  c #45433A",
"H  c #4B463D",
"J  c #4C493C",
"K  c #544533",
"L  c #5B4533",
"P  c #5A4B34",
"I  c #564A38",
"U  c #58503A",
"Y  c #5C513B",
"T  c #6B4423",
"R  c #6A4928",
"E  c #754B23",
"W  c #675325",
"Q  c #795426",
"!  c #614D35",
"~  c #674B38",
"^  c #764D33",
"/  c #6E5433",
"(  c #63533C",
")  c #6B523D",
"_  c #755234",
"`  c #775738",
"'  c #7A553C",
"]  c #7D6439",
"[  c #4C4741",
"{  c #544D43",
"}  c #574E49",
"|  c #5C5445",
" . c #575348",
".. c #5E5A4D",
"X. c #4D4F52",
"o. c #504F54",
"O. c #595658",
"+. c #695744",
"@. c #635A4C",
"#. c #6C5B4D",
"$. c #765646",
"%. c #735C45",
"&. c #745D4A",
"*. c #74584D",
"=. c #645C56",
"-. c #6C624D",
";. c #79644A",
":. c #6A6353",
">. c #686557",
",. c #6C665B",
"<. c #746554",
"1. c #7C6C53",
"2. c #736D5C",
"3. c #7C735C",
"4. c #696865",
"5. c #736B63",
"6. c #786E6D",
"7. c #7A7364",
"8. c #7A7569",
"9. c #7E7872",
"0. c #875826",
"q. c #845A2B",
"w. c #8B5C2C",
"e. c #965E27",
"r. c #9C5D2D",
"t. c #845B36",
"y. c #935F33",
"u. c #995D38",
"i. c #8F612C",
"p. c #93632E",
"a. c #9A622E",
"s. c #9C682F",
"d. c #8D6434",
"f. c #8A623B",
"g. c #956333",
"h. c #9A6434",
"j. c #9B6935",
"k. c #93643B",
"l. c #9B653B",
"z. c #966B3A",
"x. c #9C6A3A",
"c. c #9B713F",
"v. c #A2632D",
"b. c #A76936",
"n. c #A3713E",
"m. c #875B43",
"M. c #87684A",
"N. c #9B6C43",
"B. c #946B48",
"V. c #9D6D49",
"C. c #8C744A",
"Z. c #977548",
"A. c #9D744B",
"S. c #856E55",
"D. c #926A51",
"F. c #867153",
"G. c #887759",
"H. c #8C755B",
"J. c #997755",
"K. c #A77647",
"L. c #AD784D",
"P. c #A17C52",
"I. c #A47857",
"U. c #857967",
"Y. c #847B6B",
"T. c #957C6F",
"R. c #857A74",
"E. c #847C74",
"W. c #A47D60",
"Q. c #AC814B",
"!. c #A78359",
"~. c #B98758",
"^. c #B08B58",
"/. c #978669",
"(. c #898475",
"). c #8D8A7C",
"_. c #968979",
"`. c #99927C",
"'. c #A78769",
"]. c #B38962",
"[. c #BB8B63",
"{. c #AE9A68",
"}. c #BA9566",
"|. c #B48D70",
" X c #AC977A",
".X c #B89879",
"XX c #BAA276",
"oX c #C49565",
"OX c #C6986C",
"+X c #C69875",
"@X c #CCA977",
"#X c #C8A878",
"$X c #928E8C",
"%X c #9C9583",
"&X c #9B998B",
"*X c #9D9797",
"=X c #A59989",
"-X c #A89E94",
";X c #A5A08D",
":X c #B5A284",
">X c #AAA598",
",X c #B4A79A",
"<X c #9896A3",
"1X c #A099A1",
"2X c #9DA2A3",
"3X c #A9A8A7",
"4X c #B6ADA6",
"5X c #B8B4A9",
"6X c #AAAEB1",
"7X c #AEB2B4",
"8X c #B4B3B3",
"9X c #BBBAB9",
"0X c #C5A584",
"qX c #D3BA8D",
"wX c #D7B894",
"eX c #E4B58D",
"rX c #E2B391",
"tX c #C5ADA1",
"yX c #C8B8A9",
"uX c #D4BEA9",
"iX c #C4BEB3",
"pX c #C5B9B6",
"aX c #D6C08F",
"sX c #DDC69C",
"dX c #E4C491",
"fX c #CAC3B7",
"gX c #D7C7BA",
"hX c #ECCEB8",
"jX c #C8C9CC",
"kX c #D9CDC4",
"lX c #D8D2CB",
"zX c #D8D5D5",
"xX c #E7D6CB",
"cX c #DAE6DA",
"vX c #D9DCE1",
"bX c #E0DEE1",
"nX c #E4E5E3",
"mX c #F2F0E6",
"MX c #F6F7ED",
"NX c #F5FAF6",
"BX c #FFFBF4",
"VX c #FDFEFB",
/* pixels */
"z z j z z M M a z _ M h M M R M R m.M.D.1.` %.;.R v L g v f 3 ; ; ; = .   . .       .   . . =       ",
"].@X0X+X0X0XW.h ` 0X.X0X0X.X.XF.M. X:X|. X_.H.U.~ L +.K m n v 0 ; * ; ; ; ; & # # ; O   . O . O . = ",
"|.wXrXwXqXsX0Xf ] sX0XsXqXwXsXC.W XXqX0X:X X/./.! P :.I m m r 8 6 4 > $ @ @ + @ O O O O & @ O @ O & ",
"|.'.|.wXqXqX}.p ] {.Z.#XqXXXaXC.W {.{.{.XX/./.1.( P Y m m n r 8 4 > * > $ $ @ + + + @ @ # o # X O # ",
"D.' D.xX}.OX@Xd Q K.f.#X@X^.dXZ.N {.Z.Z.:X/./.3.( U Y Z D D e 7 2 > > > $ $ + + + + + + $ o @ $ @ # ",
"L | b D.K.oXOXp N.oXt.OX+Xg.qXz.N @XP.~. XG.G.1.U A U t F D e 7 > > > $ $ $ + + + + X $ @ + @ o @ & ",
"_.tX%X} x +XeXi u.L.q.rXeXz.eXV.E OXP.I.:X/././.W U U Z Z t q 7 < > > $ $ $ $ $ + + + X $ X @ o & @ ",
"mXBXbX*Xa I.|.a t.D.^ +X|.M.|.D._ ].I.J.`.3.-.3.U Z U Z t q q q 6 > $ $ $ $ @ + + + $ o @ X @ o @ @ ",
"BXVXNX6Xb b $.b ~ &.~ ) ~ L $.&.+.S.U.1.U.-.#.#.| U J D c e 7 9 5 : # & & $ @ @ @ + + @ & o @ o # # ",
"BXVXNX7X{ ;XgXfX5X5X5XiXpXpXiXfXfXyX5X3X=X=X(.U.7.>... .H y 0 0 5 : # & & @ & @ @ O O O # O # o O # ",
"bXVXvX<Xy nXNXMXVXVXMXVXVXNXVXNXNXMXcXcXuXfX,X$X).9.>.=.} n 0 8 5 * # * & # @ $ & O O & # O & O # # ",
"3XVX<X<XH 8XzXbXlXbXvXjXbXjXzXzXlXlXpXpX,X>X%X(.(.2.....[ u e 8 6 4 * * $ $ @ @ + + O + @ o @ @ @ @ ",
"8XVX1X<X[ =.} 4.O.o.O.4.O.O.O.6.8.8.8.6.7.3.:.@...} H G u y 8 6 4 & # & $ $ @ o + O @ + @ o # o # @ ",
"*XzX1X1Xv 6.R.R.5.6.R.9.6.R.R.R.$X(.(.U.Y.U.2.=.@.| J n n y 8 7 6 , & * $ $ @ @ + + @ O @ o @ o # @ ",
"H =.o.$X*.,XxXxXgXxXxXgXkXbXgXgXxXgXgXyX,X=X`._.U.2.:.@.D y e 8 6 * * & $ $ @ $ @ @ @ + @ o # o @ @ ",
",.n =.pXv g b b ! L b I L b b $.;.;.%.%.1.+.+.+.I m m r c e 7 7 4 * & & $ $ @ @ o @ @ O # X @ o @ # ",
"kX4XkX,Xg p p - f p - f p - f b M / ^ $.-.S ! ( A Z F c w 3 2 4 4 * & * $ $ @ @ + @ + + & o @ o # @ ",
"=XyXtXv - ` B.s z _ ^ M.' T A.t.T C.D.C.G.` ;.;.! A K v c q 9 7 6 < * * $ $ $ + @ + @ O @ o # o o @ ",
"- p - f l ^.OXl E N.A.+XV.t.0XA.T !.!.I. X1.C.G./ S P Z m c e 9 6 * $ @ $ $ $ + @ @ @ o @ o @ @ % @ ",
"g - p h q.L.OXa C l.y.].u.u.OXV.E P.!.P.'.M.F.G.! A Y v c r 9 7 4 , * > $ $ $ $ o @ o @ @ o # o # @ ",
"/ T t.B.0.Q.oXj C x.h.~.y.y.oXK.V P.!.Z./.1.1.1.S A Y K D t 9 7 < * % % $ $ $ o @ o @ o $ o @ o @ @ ",
"t.f.I.~.i.K.oXd V b.v.~.h.y.oXN.V A.!.J./.F.G.G.( S U Z m t q 9 2 , & @ $ @ o % + o @ o # o # o # @ ",
"q.k.N.K.i.K.oXd B x.j.~.h.g.oXN.N Z.!.!./.1.1.1.Y A F w c r q 7 2 , % @ $ $ @ o @ o @ @ @ o @ o @ @ ",
"q.g.n.b.i.n.oXk B b.v.L.g.g.oXV.V J.!.!.G.-.( +.K F Z c t w q 7 2 > % % $ $ $ $ @ o o @ @ o # o # # ",
"q.g.b.b.p.c.}.k B j.g.n.h.w.}.N.W C.Q./.-.-.>.2.2.-.| D t q q 2 1 > > % $ $ $ o @ o @ o @ o @ o @ @ ",
"0.w.v.v.d.c.}.k B j.a.x.g.y.^.Z.W !.;.] >.3.).`.`.Y.>.J t q q 2 < ; % % $ $ $ o @ X @ @ @ o # o @ % ",
"p.p.v.e.d.z.oXk B h.y.h.j.w.[.z.N C.] ] Y.).&X&X(.7.>...D q 2 2 < % % % $ $ X % o o o @ # o # o @ @ ",
"t.k.p.h.z.A.[.l C h.h.a.h.w.^.Z./ ;.-.).`.).).&X).7.4. .D t q 2 1 % % % $ $ $ X + o @ @ # X # o # @ ",
"q.z.h.h.k.V.[.l 0.u.u.h.a.0.^.C.W ;.#.%X5X(.(.(.8.9.4.J G D e 7 < % % @ $ $ @ + $ @ @ o % X @ o % o ",
"q.k.h.b.f.A.~.l x l.r.r.a.e.}.z.! ) &.4X>X(.&X).>.>...D D G u 6 < * % % $ $ @ $ @ X @ @ @ o @ o @ # ",
"t.g.r.r.g.N.[.l B h.j.a.s.i.^.f.T +.*.pX&XE.3X>X2.4. .X.u u y 6 * : * % $ $ $ @ @ o o @ @ o @ o @ # ",
"q.g.r.r.g.N.~.j B h.h.a.s.i.Z.E T +.*.,X>X2.).(.>.>.[ G u u q 6 * < * & $ $ @ @ o o o @ @ o # o # @ ",
"w.b.r.v.i.j.~.k B h.j.r.p.p.Q N T ~ #.T.pXR.,.| H H n n n n y 5 5 : * & $ $ $ @ o o @ @ @ o @ o @ # ",
"0.h.r.b.p.j.~.k B h.h.a.e.z.N d R ~ *.<.-X*X(.,.@.} }  .[ n 8 8 5 : & * $ $ $ @ $ o o @ @ o @ o @ % ",
"0.h.r.v.p.j.~.k B h.l.h.0.c.d d ^ ~ *.*.+._.$XR.U.2.=.} [ 0 ; 8 8 : & : $ + $ @ o o @ o @ o # o @ @ ",
"y.u.v.b.a.b.L.j B h.b.g.s.j.l d ^ $.$.$.#.#.+.#.} { H c r 0 8 8 5 : : & $ $ @ @ $ X @ @ # o @ o # @ ",
"y.y.b.r.r.h.~.k C g.h.g.j.p.N d T ^ *.*.#.+.+.+.I m m n c 0 0 8 5 : # & & $ @ @ @ o o @ # o @ o # @ ",
"t.y.V.u.g.h.~.l C y.g.j.j.i.0.V N ^ $.$.#.Y +.Y L m m c v 0 0 5 5 : ; # $ $ $ @ o o @ @ # o # o @ @ ",
"_ B.N.u.h.y.L.l C h.g.x.j.i.c.d.T _ $./ +.) ( ( L K I m n w 8 9 : # # # $ $ @ $ + @ @ o @ X @ o @ # ",
"_ I.t.V.j.y.L.k E l.g.g.j.p.Q.z.V t.M.' ;.;.;.;.+.L I m v w 0 9 5 ; # # $ $ @ $ + o @ @ @ o # o # @ ",
"h ^ M m.u.u.L.j C l.u.y.g.i.Q.p.E B.J.J.F.F.1.1./ P A Z Z w q q 1 % % % $ $ $ @ @ o o @ @ o @ o # @ ",
"` $.t.M 0.u.oXj x l.N.y.g.i.Q.d.Q A.I.'.J.F.F.;.Y S A Z v w 3 2 1 % = % $ $ @ @ @ + @ @ @ o @ o @ @ ",
"uXhXuXm.x y.oXl E N.V.j.j.p.Q.d.Q !.J.I.H.F.F.;.W P P A v w q 2 1 ; % % $ $ @ @ $ o @ o @ o # o @ # ",
"BXBXNX3Xz h $.M f $.$.^ ) -.` ` ` M.D.C.7.2.:... .J D t q q 7 7 2 < $ $ $ $ $ + @ X @ @ # o @ o @ # ",
"BXBXVX7Xp $.m.$.%.&.&.#.-.;.1.1.C./.G.C.3.2.-.....U J D u q 7 6 2 , > % $ $ @ @ + o @ @ # o @ o # @ ",
"mXVXNX6Xb uXuXkXxXfXkXkXfXgXkXgXgXgXyXtX>X;X`.(.8.>... .G y q 6 < > % > $ $ @ @ @ o o o # o @ o @ @ ",
"9XNXjX$Xm mXBXBXVXVXVXVXVXVXVXVXNXMXcXlXfXiX>X;X).8.2...J D q 2 < , % % $ $ $ @ @ o @ @ @ X # o @ # ",
"3XNX2X$X[ >XpX8X6X8X9X6X9X7X7X9X9XiX5X5X`.`.(.7.2.>... .J u q 2 4 > % $ $ $ @ @ + o @ @ @ o # o @ # ",
"3XNX2X2Xy [ O.O.X.X.X.X.o.X.X.O.4.4.6.4.8.4.>.....U J D D t 7 2 6 , , * $ $ $ $ o o @ @ $ o @ o @ @ "
};
