/* XPM */
static char *result[] = {
/* columns rows colors chars-per-pixel */
"50 49 216 2 ",
"   c #163C03",
".  c #372903",
"X  c #2D3802",
"o  c #2B2D07",
"O  c #373837",
"+  c #541805",
"@  c #4E1502",
"#  c #6A1D03",
"$  c #641D07",
"%  c #721D02",
"&  c #513204",
"*  c #6A2208",
"=  c #7B2202",
"-  c #792B11",
";  c #6F310E",
":  c #653B33",
">  c #174802",
",  c #1D5201",
"<  c #165001",
"1  c #244902",
"2  c #274602",
"3  c #225403",
"4  c #255B03",
"5  c #295C06",
"6  c #36540E",
"7  c #295118",
"8  c #334B17",
"9  c #256203",
"0  c #296505",
"q  c #2A6B04",
"w  c #2D650A",
"e  c #2E6B0A",
"r  c #276803",
"t  c #326B0D",
"y  c #2E7302",
"u  c #2E7209",
"i  c #2F7904",
"p  c #317407",
"a  c #337A06",
"s  c #33740C",
"d  c #357B0B",
"f  c #397E0E",
"g  c #2F6717",
"h  c #346D12",
"j  c #386F12",
"k  c #306010",
"l  c #367412",
"z  c #3A7314",
"x  c #3C7C15",
"c  c #3E7718",
"v  c #3F7C18",
"b  c #33522E",
"n  c #356625",
"m  c #3F7B21",
"M  c #417A1B",
"N  c #477233",
"B  c #555854",
"V  c #505049",
"C  c #77504B",
"Z  c #516D49",
"A  c #4F7344",
"S  c #557C48",
"D  c #566A4F",
"F  c #6B7B68",
"G  c #747162",
"H  c #8C2A04",
"J  c #832706",
"K  c #942D04",
"L  c #9A2F03",
"P  c #9C3105",
"I  c #9A330A",
"U  c #90300C",
"Y  c #853B11",
"T  c #993713",
"R  c #A43407",
"E  c #A63609",
"W  c #AC3A0D",
"Q  c #A93808",
"!  c #A83B11",
"~  c #B33E12",
"^  c #B43E0D",
"/  c #8E3A24",
"(  c #B54215",
")  c #B84316",
"_  c #AA421C",
"`  c #864334",
"'  c #904B3D",
"]  c #B4573D",
"[  c #AF5536",
"{  c #8C574F",
"}  c #97635B",
"|  c #90726E",
" . c #AD776C",
".. c #C17C6E",
"X. c #39840C",
"o. c #3A890D",
"O. c #378809",
"+. c #3D8213",
"@. c #3E8C11",
"#. c #3D851A",
"$. c #428C14",
"%. c #458A1D",
"&. c #488E1C",
"*. c #428417",
"=. c #46951A",
"-. c #4A9A1D",
";. c #469518",
":. c #488922",
">. c #4D9E21",
",. c #4D9321",
"<. c #53982A",
"1. c #4F8930",
"2. c #54A526",
"3. c #5BAD2D",
"4. c #56A529",
"5. c #5DAD31",
"6. c #57A928",
"7. c #62AE39",
"8. c #64B536",
"9. c #65BA36",
"0. c #6BBC3C",
"q. c #66B639",
"w. c #6EC33D",
"e. c #70C33F",
"r. c #588446",
"t. c #5E9B44",
"y. c #63904E",
"u. c #71BD45",
"i. c #6DA855",
"p. c #73A55D",
"a. c #71BA4C",
"s. c #6D8865",
"d. c #6E8265",
"f. c #75876C",
"g. c #759468",
"h. c #7A8875",
"j. c #6D8C68",
"k. c #7AA96B",
"l. c #7CA172",
"z. c #73C347",
"x. c #85887D",
"c. c #83967E",
"v. c #9B827F",
"b. c #B7837B",
"n. c #86A979",
"m. c #88B977",
"M. c #CC887A",
"N. c #89C86B",
"B. c #90C47D",
"V. c #858682",
"C. c #868982",
"Z. c #8C8C8A",
"A. c #898A86",
"S. c #879B83",
"D. c #90928E",
"F. c #92998F",
"G. c #949493",
"H. c #999896",
"J. c #9C9C9C",
"K. c #959B92",
"L. c #9F8986",
"P. c #A48B87",
"I. c #A69B99",
"U. c #AC9488",
"Y. c #8CA585",
"T. c #98BD8B",
"R. c #95A992",
"E. c #99A696",
"W. c #9EB794",
"Q. c #8DB281",
"!. c #A1A79F",
"~. c #A4A4A4",
"^. c #ADA4A5",
"/. c #A4ABA4",
"(. c #ACABAC",
"). c #A8AAA9",
"_. c #B4ACAE",
"`. c #B2A7A8",
"'. c #ADB2AD",
"]. c #ABB9A7",
"[. c #AFADB1",
"{. c #B3AEB2",
"}. c #ABB1B1",
"|. c #B3B2B3",
" X c #B6B4BA",
".X c #B9B6BB",
"XX c #BBBBBC",
"oX c #B8B4B4",
"OX c #C7A09A",
"+X c #C3B9B8",
"@X c #D0B3AD",
"#X c #98C787",
"$X c #A5C29B",
"%X c #AAD598",
"&X c #ADC6A4",
"*X c #AEC7A4",
"=X c #B7D7AA",
"-X c #B9C5B5",
";X c #C1CDBD",
":X c #C3D4BD",
">X c #BDBCC1",
",X c #BEC2C2",
"<X c #C2C1C3",
"1X c #CAC5C5",
"2X c #C8CCC5",
"3X c #D2D3D3",
"4X c #DCDCDD",
"5X c #D9D3D1",
"6X c #E3DEDD",
"7X c #E1C6C3",
"8X c #E5E0DF",
"9X c #E1DFE2",
"0X c #FEFEFE",
"qX c #F2F0F0",
"wX c #EAE6E5",
"eX c None",
/* pixels */
"eXeXeXeXeXeXeXeXeXeXeXeXeXeXeXeXeXeXeXeXeXN.z.N.eXeXeX%X#X=XeXeXeXeXeXeXeXeXeXeXeXeXeXeXeXeXeXeXeXeX",
"eXeXeXeXeXeXeXeXeXeXeXeXeXeXeXeXeXeXeX#X8.5.2.6.6.#X3.3.3.w.u.eXeXeXeXeXeXeXeXeXeXeXeXeXeXeXeXeXeXeX",
"eXeXeXeXeXeXeXeXeXeXeXeXeXeXeXeXeXeX=X,.g Z F h.Z u S F D n #.5.eXeXeXeXeXeXeXeXeXeXeXeXeXeXeXeXeXeX",
"eXeXeXeXeXeXeXeXeXeXeXeXeXeXeXeXeXeX1.D ~.>X>X-XoXh.}.,X,XXXD.n *XeXeXeXeXeXeXeXeXeXeXeXeXeXeXeXeXeX",
"eXeXeXeXeXeXeXeXeXeXeXeXeXeXeXeXeXeXn }.>X~.B O }.E./.V B (.>XJ.j.eXeXeXeXeXeXeXeXeXeXeXeXeXeXeXeXeX",
"eXeXeXeXeXeXeXeXeXeXeXeXeXeXeXeXeXeXj.>X XB n 1.k.k.k.1.A V..X>Xy.eXeXeXeXeXeXeXeXeXeXeXeXeXeXeXeXeX",
"eXeXeXeXeXeXeXeXeXeXeXeXeXeXeXeXeXeXS.].B.z.z.w.e.w.w.z.z.z.#XXXR.eXeXeXeXeXeXeXeXeXeXeXeXeXeXeXeXeX",
"eXeXeXeXeXeXeXeXeXeXeXeXeXeXeXeXeXeXi.z.u.9.9.9.9.w.9.0.0.z.u.a.-XeXeXeXeXeXeXeXeXeXeXeXeXeXeXeXeXeX",
"eXeXeXeXeXeXeXeXeXeXeXeXeXeXeXeXeXB.8.8.q.9.8.&.2.8.9.#.5.u.9.9.u.eXeXeXeXeXeXeXeXeXeXeXeXeXeXeXeXeX",
"eXeXeXeXeXeXeXeXeXeXeXeXeXeXeXeX%X3.3.3.5.3.3.3.6.2.6.6.8.7.7.5.5.7.eXeXeXeXeXeXeXeXeXeXeXeXeXeXeXeX",
"eXeXeXeXeXeXeXeXeXeXeXeXeXeXeXeX4.>.>.>.-.-.-.=.@.-.-.-.>.>.>.>.4.4.T.eXeXeXeXeXeXeXeXeXeXeXeXeXeXeX",
"eXeXeXeXeXeXeXeXeXeXeXeXeXeXeX-X>.=.=.@.@.o.X.X.o.o.O.O.O.@.@.@.=.-.<.eXeXeXeXeXeXeXeXeXeXeXeXeXeXeX",
"eXeXeXeXeXeXeXeXeXeXeXeXeXeXeXQ.&.$.@.X.X.p p y y i i i i i X.X.@.$.,.eXeXeXeXeXeXeXeXeXeXeXeXeXeXeX",
"eXeXeXeXeXeXeXeXeXeXeXeXeXeX9Xl.$.@.f d p u y q q q q q u y q i f @.&.eXeXeXeXeXeXeXeXeXeXeXeXeXeXeX",
"eXeXeXeXeXeXeXeXeXeXeXeXeXeX4Xl.*.X.f s s u q q r r r r q q q i d x %.eXeXeXeXeXeXeXeXeXeXeXeXeXeXeX",
"eXeXeXeXeXeXeXeXeXeXeXeXeXeX4XY.*.+.x s u e q q r r 0 r r q q u l +.r.eXeXeXeXeXeXeXeXeXeXeXeXeXeXeX",
"eXeXeXeXeXeXeXeXeXeXeXeXeXeXeX'.:.v x l t t e q 0 0 w 0 w e u l z M ].eXeXeXeXeXeXeXeXeXeXeXeXeXeXeX",
"eXeXeXeXeXeXeXeXeXeXeXeXeXeXeXeXS.*.x l s t t t t w w t e t h l v g.eXeXeXeXeXeXeXeXeXeXeXeXeXeXeXeX",
"eXeXeXeXeXeXeXeXeXeXeXeXeXeXeXeXeXY.v z z j j t t t h t h h j z g.eXeXeXeXeXeXeXeXeXeXeXeXeXeXeXeXeX",
"eXeXeXeXeXeXeXeXeXeXeXeXeXeXeXeXeXeX-Xr.z z z j j j j j j z c W.eXeXeXeXeXeXeXeXeXeXeXeXeXeXeXeXeXeX",
"eXeXeXeXeXeXeXeXeXeXeXeXeXeXeXeXeX&Xs.h.S.y.M M c c c M N r.S.eXeXeXeXeXeXeXeXeXeXeXeXeXeXeXeXeXeXeX",
"eXeXeXeXeXeXeXeXeXeXeXeXeXeXeXeXt.l g '.{.~.F.h.d.f.x.G.(.E.e M p.eXeXeXeXeXeXeXeXeXeXeXeXeXeXeXeXeX",
"eXeXeXeXeXeXeXeXeXeXeXeXeXeXm.*.s 9 F XX[.~.G.C.x.x.D.H.).|.g s *.,.:XeXeXeXeXeXeXeXeXeXeXeXeXeXeXeX",
"eXeXeXeXeXeXeXeXeX$Xk.i.p.&.s 9 < > /.>X|.J.G.C.V.V.Z.H.).XXs.w s *.&.*XeXeXeXeXeXeXeXeXeXeXeXeXeXeX",
"eXeXeXeXeXeXeXeX2.a p $.-.$.q ,   Z XX,X>XJ.G.Z.A.V.Z.H.[.>XE.w 9 w s %.$XeXeXeXeXeXeXeXeXeXeXeXeXeX",
"eXeXeXeXeXeXeXQ.;.$.$.O.;.$.l !.eXF.XX.X[.~.G.G.Z.Z.D.J.[.>X}.x !.7 4 u $.W.eXeXeXeXeXeXeXeXeXeXeXeX",
"eXeXeXeXeXeXeX-.f p p 9 a p E.eXeX/.|. X[.~.J.G.G.G.J.~.|.>X<Xr.;XeXb 3 s &.n.eXeXeXeXeXeXeXeXeXeXeX",
"eXeXeXeXeXeX*X;.X.0 4 0 e l eXeX/.~.[.|.|.(.~.J.J.J.~.[.|..X>XS.n.eXXX> e :.=.t.eXeXeXeXeXeXeXeXeXeX",
"eXeXeXeXeXeX<.*.s p N ].Y.eXeXeXK.~.^.(.[.[.(.~.~.~.(.[. X X>X/.M eXeX< q l *.&.<.eXeXeXeXeXeXeXeXeX",
"eXeXeXeXeXeXn.s 9 w eXeXeXeXeX2XE.~.).(.[.[.[.).).(.[.[. X X>X>Xl eXeX< 4 0 q s :.eXeXeXeXeXeXeXeXeX",
"eXeXeXeXeXeXeX;X].eXeXeXeXeXeX-X~.~.(.(.{.{.[.[.[.[.[. X X X X>XS eXeX, 0 0 , 9 l eXeXeXeXeXeXeXeXeX",
"eXeXeXeXeXeXeXeXeXeXeXeXeXeX-Xf.(.(.(.{.{.{.{.{.{.{.|.|.|. X X>Xs.2XeX3 t 5 4 5 R.eXeXeXeXeXeXeXeXeX",
"eXeXeXeXeXeXeXeXeXeXeXeXeXeXe N `.{.|.{.|.{.{.{.oX{.{.{.|.|..X.Xf.n eX'.-XeX2X2XeXeXeXeXeXeXeXeXeXeX",
"eXeXeXeXeXeXeXeXeXeXeXeXeXE.5 > C.|.|.{.|.{.{.{.{.{.{.{.{.|. X{.A s R.eXeXeXeXeXeXeXeXeXeXeXeXeXeXeX",
"eXeXeXeXeXeXeXeXeXeXeXeXeXg.4 , 7 H._.oX_._.oXoX{._._._._._.(.G 9 r r.eXeXeXeXeXeXeXeXeXeXeXeXeXeXeX",
"eXeXeXeXeXeXeXeXeXeXeXeXeXc.0 4 3 6 x.^.`._._._._._.^.^.^.I.D 4 r r S eXeXeXeXeXeXeXeXeXeXeXeXeXeXeX",
"eXeXeXeXeXeXeXeXeXeXeXeXeX].g 3 3 1 > V P.+X+XoX{.oXoXI.G 8 5 5 0 0 Y.eXeXeXeXeXeXeXeXeXeXeXeXeXeXeX",
"eXeXeXeXeXeXeXeXeXeXeXeXeX] 6 1 2 2 X o + 6X0X0X0X0XwX: 8 2 5 3 5 k U.eXeXeXeXeXeXeXeXeXeXeXeXeXeXeX",
"eXeXeXeXeXeXeXeXeXeXeXeX7X_ - & X X . @ + 5X0X0X0X0X+X+ . 2 2 2 2 6 Y eXeXeXeXeXeXeXeXeXeXeXeXeXeXeX",
"eXeXeXeXeXeXeXeXeXeXeXeXeXT U - % % % # L.0X0X0X0X0X6X# # * & & ; Y T eXeXeXeXeXeXeXeXeXeXeXeXeXeXeX",
"eXeXeXeXeXeXeXeXeXeXeX@X] ! L H J % # $ C qX4X3X3X3X9X- % J J H K L U.eXeXeXeXeXeXeXeXeXeXeXeXeXeXeX",
"eXeXeXeXeXeXeXeXeXeXM.( ) ( R P K J - # $ +X|.|.|. XJ.- - J L Q W ^ ] eXeXeXeXeXeXeXeXeXeXeXeXeXeXeX",
"eXeXeXeXeXeXeXeXeXOX) ( ( W Q E I H J * : J.~.~.~.~.G - I R W ^ ~ ) ) [ eXeXeXeXeXeXeXeXeXeXeXeXeXeX",
"eXeXeXeXeXeXeXeXeXb.( R P R P P L U J C G.~.(.{.[.).G./ L E ~ ~ ) ~ ~ ( ..eXeXeXeXeXeXeXeXeXeXeXeXeX",
"eXeXeXeXeXeXeXeXeXOX! P P L K K K H { ~.oX<X3XeXeX>X[.| I R E E E E E E _ eXeXeXeXeXeXeXeXeXeXeXeXeX",
"eXeXeXeXeXeXeXeXeXeX1XP.} ' / / } P.2XeXeXeXeXeXeXeX<XP.I E I P L P P T  .eXeXeXeXeXeXeXeXeXeXeXeXeX",
"eXeXeXeXeXeXeXeXeXeXeXeXeXeXeXeXeXeXeXeXeXeXeXeXeXeXeX3XI.} / H H H ' | 2XeXeXeXeXeXeXeXeXeXeXeXeXeX",
"eXeXeXeXeXeXeXeXeXeXeXeXeXeXeXeXeXeXeXeXeXeXeXeXeXeXeXeXeXeXeX3X<X1X5XeXeXeXeXeXeXeXeXeXeXeXeXeXeXeX",
"eXeXeXeXeXeXeXeXeXeXeXeXeXeXeXeXeXeXeXeXeXeXeXeXeXeXeXeXeXeXeXeXeXeXeXeXeXeXeXeXeXeXeXeXeXeXeXeXeXeX"
};
